<svg id="Logo" xmlns="http://www.w3.org/2000/svg" viewBox="0 0 3145.76 985.7"><defs><style>.cls-1{fill:#7f7f7f;}</style></defs><title>tellfinder-wordmark-dark</title><path class="cls-1" d="M492.88,725.38c-128.22,0-232.54-104.32-232.54-232.54S364.66,260.31,492.88,260.31V311c-100.26,0-181.83,81.57-181.83,181.82s81.57,181.83,181.83,181.83Z"/><path class="cls-1" d="M492.85,811.33c-175.61,0-318.48-142.87-318.48-318.48h50.71c0,147.65,120.12,267.77,267.77,267.77S760.62,640.5,760.62,492.85,640.5,225.08,492.85,225.08V174.37c175.61,0,318.48,142.87,318.48,318.48S668.46,811.33,492.85,811.33Z"/><path class="cls-1" d="M492.85,637.26c-79.63,0-144.41-64.78-144.41-144.41s64.78-144.41,144.41-144.41v50.71a93.7,93.7,0,1,0,93.7,93.7h50.71C637.26,572.47,572.48,637.26,492.85,637.26Z"/><path d="M584.84,474.93a94.38,94.38,0,0,0-73.61-74l9.88-49.74A143.69,143.69,0,0,1,634.63,465.31Z"/><path d="M1071.83,694.78c-42.43-3.9-83.88-24.38-83.88-74.61l-.49-313.43h65.83V441.19H1126l1,57.06-73.64-1-.49,117.53c0,11.22,7.32,22.44,25.85,22.92,23.41,1,23.9-1.95,40-10.24l18.53,48.77S1113.27,698.68,1071.83,694.78Z"/><path d="M1281.18,694.29c-80,0-127.28-58.52-127.28-130.7,0-88.27,63.4-132.16,124.84-130.21,78,2.92,116.55,66.32,109.73,144.84H1221.2c2.44,33.65,32.68,61.45,67.79,61.45,37.07,0,51.21-10.73,65.84-27.8,0,0,27.31,32.19,33.65,38.53C1369.45,673.32,1332.39,694.29,1281.18,694.29Zm-2.44-208.72c-41-1-53.64,19.51-54.13,41.45l100.46.49C1323.13,504.1,1307.52,486.05,1278.75,485.56Z"/><path d="M1502.6,695.26c-34.63,0-76.08-18-76.08-69.74V305.13h65.84V612.36c0,26.82,22.92,31.7,48.28,17.07l15.12,48.77S1538.2,695.26,1502.6,695.26Z"/><path d="M1656.21,695.26c-34.62,0-76.08-18-76.08-69.74V305.13H1646V612.36c0,26.82,22.92,31.7,48.28,17.07l15.12,48.77S1691.82,695.26,1656.21,695.26Z"/><path d="M1856.65,366.57a52.51,52.51,0,0,0-34.14-12.68c-18,0-27.31,14.14-27.31,25.85v61.94h56.08l1,56.57-57.06-.49V687h-65.84V386.08c0-34.14,21-82.9,86.81-82.9,26.82,0,49.25,5.85,65.84,21.46Z"/><path d="M1912.25,687l-1-188.73h-26.82l.49-57.55,92.66-.49V687Zm33.65-270.66a39.5,39.5,0,1,1,0-79,39.5,39.5,0,0,1,0,79Z"/><path d="M2170.23,687V533.84c0-53.64-46.33-45.35-76.08-37.55V687.46h-65.34v-237c29.26-8.29,66.32-15.12,104.36-15.12,61,0,102.41,31.7,102.41,88.27V687.46Z"/><path d="M2408.7,695.26c-77.05,0-138-51.2-138-129.23s61-129.23,138-129.23c9.75,0,21,1.46,34.14,4.39V305.13h65.35V669.9C2493.07,682.58,2452.59,695.26,2408.7,695.26Zm34.14-197c-9.75-3.9-22.44-5.85-34.63-5.85-45.35,0-69.73,26.82-69.73,71.69,0,43.4,24.87,73.15,69.25,73.15,11.21,0,24.38-.49,35.11-5.37Z"/><path d="M2665.23,694.29c-80,0-127.28-58.52-127.28-130.7,0-88.27,63.4-132.16,124.84-130.21,78,2.92,116.56,66.32,109.72,144.84H2605.25c2.44,33.65,32.67,61.45,67.79,61.45,37.06,0,51.21-10.73,65.83-27.8,0,0,27.31,32.19,33.65,38.53C2753.5,673.32,2716.44,694.29,2665.23,694.29Zm-2.44-208.72c-41-1-53.65,19.51-54.13,41.45l100.46.49C2707.17,504.1,2691.56,486.05,2662.79,485.56Z"/><path id="_Path_" data-name="&lt;Path&gt;" d="M2917.61,439.92l-9.37.39c-15.18.16-29.66,1.24-42.52,4.26-.08,0-.16.08-.23.08-31.21,7.2-53.21,25.25-54.37,65.76v3.33l.39,172.1v1.63h66V518.62c0-11,7-22,24.86-22.93h63.82V439.92Z"/></svg>