<?xml version="1.0" encoding="UTF-8"?>
<svg width="175px" height="30px" viewBox="0 0 175 30" version="1.1" xmlns="http://www.w3.org/2000/svg" xmlns:xlink="http://www.w3.org/1999/xlink">
    <!-- Generator: Sketch 43.1 (39012) - http://www.bohemiancoding.com/sketch -->
    <title>tellfinder_white</title>
    <desc>Created with Sketch.</desc>
    <defs></defs>
    <g id="Working" stroke="none" stroke-width="1" fill="none" fill-rule="evenodd">
        <g id="tellfinder_white" fill="#FFFFFF">
            <g id="Group-3" transform="translate(73.125000, 0.536313)">
                <path d="M17.34925,2.7538125 C16.0605,2.7538125 14.859875,3.0175625 13.717375,3.4856875 C12.604875,3.9838125 11.60925,4.6575625 10.759875,5.5069375 C9.9105,6.3556875 9.23675,7.3225625 8.73925,8.4644375 C8.2705,9.5775625 8.00675,10.7781875 8.00675,12.0963125 C8.00675,13.3550625 8.2705,14.5563125 8.73925,15.6981875 C9.23675,16.8406875 9.9105,17.8363125 10.759875,18.6856875 C11.60925,19.5350625 12.604875,20.2081875 13.717375,20.6769375 C14.859875,21.1750625 16.0605,21.4088125 17.34925,21.4088125 C18.638,21.4088125 19.838625,21.1750625 20.9805,20.6769375 C22.093625,20.2081875 23.08925,19.5350625 23.938625,18.6856875 C24.788,17.8363125 25.461125,16.8406875 25.929875,15.6981875 C26.428,14.5563125 26.662375,13.3550625 26.662375,12.0963125 C26.662375,10.7781875 26.428,9.5775625 25.929875,8.4644375 C25.461125,7.3225625 24.788,6.3556875 23.938625,5.5069375 C23.08925,4.6575625 22.093625,3.9838125 20.9805,3.4856875 C19.838625,3.0175625 18.638,2.7538125 17.34925,2.7538125 M0.041125,26.7394375 L7.6555,19.1250625 C7.303625,18.6269375 6.98175,18.0994375 6.718,17.5431875 C6.4255,16.9869375 6.16175,16.4306875 5.986125,15.8450625 C5.781125,15.2294375 5.634875,14.6438125 5.517375,13.9994375 C5.4005,13.3844375 5.371125,12.7406875 5.371125,12.0963125 C5.371125,10.4269375 5.663625,8.8744375 6.308,7.4100625 C6.923,5.9750625 7.80175,4.7156875 8.8855,3.6325625 C9.96925,2.5488125 11.228625,1.6700625 12.693,1.0550625 C14.127375,0.4106875 15.679875,0.0888125 17.34925,0.0888125 C18.98925,0.0888125 20.5705,0.4106875 22.0055,1.0550625 C23.4405,1.6700625 24.72925,2.5488125 25.813,3.6325625 C26.89675,4.7156875 27.746125,5.9750625 28.3905,7.4100625 C29.004875,8.8744375 29.327375,10.4269375 29.327375,12.0963125 C29.327375,13.7363125 29.004875,15.2881875 28.3905,16.7525625 C27.746125,18.1875625 26.89675,19.4763125 25.813,20.5600625 C24.72925,21.6431875 23.4405,22.4925625 22.0055,23.1369375 C20.5705,23.7519375 18.98925,24.0744375 17.34925,24.0744375 C16.704875,24.0744375 16.0605,24.0156875 15.416125,23.8988125 C14.801125,23.8106875 14.186125,23.6644375 13.6005,23.4594375 C13.014875,23.2544375 12.42925,23.0200625 11.873,22.7269375 C11.316125,22.4631875 10.818625,22.1413125 10.3205,21.7900625 L2.706125,29.3750625 C2.14925,29.3456875 1.7105,29.2288125 1.358625,29.0525625 C1.03675,28.9063125 0.743625,28.6425625 0.451125,28.2619375 C0.187375,27.9106875 0.041125,27.3831875 0.041125,26.7394375" id="Fill-1"></path>
            </g>
            <path d="M88.8726875,19.114875 C88.7226875,19.004875 88.6120625,18.878625 88.5414375,18.736125 C88.4708125,18.59425 88.4270625,18.413 88.4114375,18.192375 L89.4995625,12.6805 C89.4833125,12.44425 89.4401875,12.25925 89.3695625,12.124875 C89.2983125,11.9905 89.1876875,11.86425 89.0383125,11.746125 C88.8883125,11.628 88.6795625,11.568625 88.4114375,11.568625 C88.1745625,11.553625 87.9895625,11.509875 87.8551875,11.438625 C87.7214375,11.368 87.5951875,11.257375 87.4770625,11.107375 C87.3583125,10.957375 87.2995625,10.74925 87.2995625,10.4805 L90.6108125,10.4805 C90.8476875,10.49675 91.0333125,10.539875 91.1670625,10.6105 C91.3008125,10.68175 91.4276875,10.792375 91.5451875,10.94175 C91.6639375,11.09175 91.7226875,11.301125 91.7226875,11.568625 C91.7226875,11.853 91.6639375,12.24675 91.5451875,12.75175 C91.4276875,13.256125 91.3008125,13.784875 91.1670625,14.336125 C91.0333125,14.888625 90.9070625,15.41675 90.7883125,15.921125 C90.6701875,16.426125 90.6108125,16.812375 90.6108125,17.0805 C90.6108125,17.36425 90.6701875,17.58175 90.7883125,17.731125 C90.9070625,17.881125 91.0333125,17.988 91.1670625,18.0505 C91.3008125,18.113625 91.4864375,18.161125 91.7226875,18.192375 L92.8114375,18.192375 C92.7476875,18.413 92.6139375,18.59425 92.4089375,18.736125 C92.2039375,18.878625 91.8770625,19.004875 91.4276875,19.114875 C90.9776875,19.2255 90.3351875,19.2805 89.4995625,19.2805 C89.2308125,19.2805 89.0220625,19.2255 88.8726875,19.114875" id="Fill-4"></path>
            <path d="M91.2855625,8.1978125 C91.1511875,8.1428125 91.0330625,8.0640625 90.9311875,7.9615625 C90.8280625,7.8590625 90.7493125,7.7409375 90.6943125,7.6065625 C90.6386875,7.4728125 90.6111875,7.3265625 90.6111875,7.1690625 C90.6111875,7.0265625 90.6386875,6.8890625 90.6943125,6.7546875 C90.7493125,6.6209375 90.8280625,6.5028125 90.9311875,6.4003125 C91.0330625,6.2978125 91.1511875,6.2190625 91.2855625,6.1634375 C91.4193125,6.1084375 91.5655625,6.0803125 91.7230625,6.0803125 C91.8649375,6.0803125 92.0030625,6.1084375 92.1374375,6.1634375 C92.2705625,6.2190625 92.3893125,6.2978125 92.4918125,6.4003125 C92.5943125,6.5028125 92.6730625,6.6209375 92.7286875,6.7546875 C92.7836875,6.8890625 92.8111875,7.0265625 92.8111875,7.1690625 C92.8111875,7.3265625 92.7836875,7.4728125 92.7286875,7.6065625 C92.6730625,7.7409375 92.5943125,7.8590625 92.4918125,7.9615625 C92.3893125,8.0640625 92.2705625,8.1428125 92.1374375,8.1978125 C92.0030625,8.2534375 91.8649375,8.2803125 91.7230625,8.2803125 C91.5655625,8.2803125 91.4193125,8.2534375 91.2855625,8.1978125" id="Fill-6"></path>
            <g id="Group-10" transform="translate(0.000000, 5.536313)">
                <polygon id="Fill-8" points="12.4193125 0.3340625 12.4193125 4.0465625 10.2761875 4.0465625 10.1611875 2.4871875 7.5968125 2.4871875 7.5968125 12.3040625 9.0899375 12.5909375 9.0899375 14.2653125 3.3105625 14.2653125 3.3105625 12.5909375 4.8030625 12.3040625 4.8030625 2.4871875 2.2486875 2.4871875 2.1336875 4.0465625 -6.25e-05 4.0465625 -6.25e-05 0.3340625"></polygon>
            </g>
            <polygon id="Fill-11" points="26.2411875 13.678 21.5236875 13.678 21.5236875 17.658 26.0211875 17.658 26.1455625 15.993625 28.2699375 15.993625 28.2699375 19.80175 17.2474375 19.80175 17.2474375 18.127375 18.7299375 17.8405 18.7299375 7.84175 17.2474375 7.55425 17.2474375 5.8705 18.7299375 5.8705 28.2505625 5.8705 28.2505625 9.688 26.1074375 9.688 25.9830625 8.023 21.5236875 8.023 21.5236875 11.5255 26.2411875 11.5255"></polygon>
            <polygon id="Fill-13" points="33.6815 19.8018125 33.6815 18.1274375 35.164625 17.8399375 35.164625 7.8418125 33.6815 7.5549375 33.6815 5.8705625 35.164625 5.8705625 37.958375 5.8705625 39.450875 5.8705625 39.450875 7.5549375 37.958375 7.8418125 37.958375 17.6580625 41.890875 17.6580625 42.024625 15.9080625 44.158375 15.9080625 44.158375 19.8018125"></polygon>
            <polygon id="Fill-15" points="49.0821875 19.8018125 49.0821875 18.1274375 50.5653125 17.8399375 50.5653125 7.8418125 49.0821875 7.5549375 49.0821875 5.8705625 50.5653125 5.8705625 53.3590625 5.8705625 54.8515625 5.8705625 54.8515625 7.5549375 53.3590625 7.8418125 53.3590625 17.6580625 57.2915625 17.6580625 57.4253125 15.9080625 59.5590625 15.9080625 59.5590625 19.8018125"></polygon>
            <polygon id="Fill-17" points="73.6874375 13.26675 66.9130625 13.26675 66.9130625 19.80175 65.7743125 19.80175 65.7743125 5.8705 74.6636875 5.8705 74.6636875 6.84675 66.9130625 6.84675 66.9130625 12.291125 73.6874375 12.291125"></polygon>
            <polygon id="Fill-19" points="117.838937 19.8018125 116.700187 19.8018125 108.787062 7.8224375 108.730187 7.8318125 108.730187 19.8018125 107.582062 19.8018125 107.582062 5.8705625 108.730187 5.8705625 116.642687 17.8305625 116.700187 17.8211875 116.700187 5.8705625 117.838937 5.8705625"></polygon>
            <path d="M125.412625,19.8018125 L125.412625,5.8705625 L129.460125,5.8705625 C131.16325,5.8705625 132.5695,6.4386875 133.6795,7.5736875 C134.7895,8.7093125 135.3445,10.1668125 135.3445,11.9468125 L135.3445,13.7355625 C135.3445,15.5218125 134.7895,16.9793125 133.6795,18.1080625 C132.5695,19.2368125 131.16325,19.8018125 129.460125,19.8018125 L125.412625,19.8018125 Z M126.551375,6.8461875 L126.551375,18.8255625 L129.460125,18.8255625 C130.837625,18.8255625 131.972,18.3449375 132.861375,17.3818125 C133.751375,16.4199375 134.196375,15.2024375 134.196375,13.7305625 L134.196375,11.9136875 C134.196375,10.4605625 133.7495,9.2530625 132.857,8.2905625 C131.96325,7.3280625 130.831375,6.8461875 129.460125,6.8461875 L126.551375,6.8461875 Z" id="Fill-21"></path>
            <polygon id="Fill-23" points="150.037063 13.0561875 143.330188 13.0561875 143.330188 18.8255625 151.013313 18.8255625 151.013313 19.8011875 142.191438 19.8011875 142.191438 5.8705625 150.965188 5.8705625 150.965188 6.8461875 143.330188 6.8461875 143.330188 12.0805625 150.037063 12.0805625"></polygon>
            <path d="M158.51075,13.505875 L158.51075,19.8015 L157.372,19.8015 L157.372,5.88025 L162.088875,5.88025 C163.582,5.88025 164.727,6.207125 165.5245,6.860875 C166.322,7.514625 166.72075,8.47025 166.72075,9.727125 C166.72075,10.4665 166.506375,11.128375 166.078875,11.712125 C165.651375,12.295875 165.048875,12.7215 164.27075,12.989625 C165.132,13.2065 165.752625,13.593375 166.131375,14.1515 C166.51075,14.71025 166.70075,15.41025 166.70075,16.252125 L166.70075,17.56275 C166.70075,17.9965 166.752,18.38525 166.853875,18.73025 C166.95575,19.074625 167.125125,19.35525 167.361375,19.572125 L167.361375,19.8015 L166.193875,19.8015 C165.957625,19.572125 165.792,19.249625 165.696375,18.835875 C165.60075,18.420875 165.552625,17.989625 165.552625,17.543375 L165.552625,16.270875 C165.552625,15.4165 165.276375,14.742125 164.725125,14.247125 C164.17325,13.753375 163.40325,13.505875 162.4145,13.505875 L158.51075,13.505875 Z M158.51075,12.529625 L161.945125,12.529625 C163.202,12.529625 164.12075,12.2765 164.701375,11.769625 C165.281375,11.262125 165.572,10.57775 165.572,9.717125 C165.572,8.798375 165.28325,8.092125 164.70575,7.59775 C164.128875,7.103375 163.256375,6.8565 162.088875,6.8565 L158.51075,6.8565 L158.51075,12.529625 Z" id="Fill-25"></path>
            <path d="M172.157312,7.4275625 L171.321062,7.4275625 L171.321062,8.5344375 L172.157312,8.5344375 C172.427937,8.5344375 172.723562,8.3150625 172.723562,7.9938125 C172.723562,7.6463125 172.427937,7.4275625 172.157312,7.4275625 L172.157312,7.4275625 Z M172.671687,10.1681875 L171.861687,8.9331875 L171.321062,8.9331875 L171.321062,10.1681875 L170.883562,10.1681875 L170.883562,7.0419375 L172.157312,7.0419375 C172.684812,7.0419375 173.174187,7.4144375 173.174187,7.9938125 C173.174187,8.6888125 172.556062,8.9200625 172.376062,8.9200625 L173.212312,10.1681875 L172.671687,10.1681875 Z M171.926062,6.2825625 C170.639187,6.2825625 169.609812,7.3119375 169.609812,8.5988125 C169.609812,9.8725625 170.639187,10.9144375 171.926062,10.9144375 C173.199812,10.9144375 174.241687,9.8725625 174.241687,8.5988125 C174.241687,7.3119375 173.199812,6.2825625 171.926062,6.2825625 L171.926062,6.2825625 Z M171.926062,11.3263125 C170.420437,11.3263125 169.198562,10.1038125 169.198562,8.5988125 C169.198562,7.0800625 170.420437,5.8706875 171.926062,5.8706875 C173.444187,5.8706875 174.653562,7.0800625 174.653562,8.5988125 C174.653562,10.1038125 173.444187,11.3263125 171.926062,11.3263125 L171.926062,11.3263125 Z" id="Fill-27"></path>
        </g>
    </g>
</svg>