<svg id="Logo" xmlns="http://www.w3.org/2000/svg" viewBox="0 0 200 200"><defs><style>.cls-1{opacity:0.5;}.cls-2{fill:#fff;}</style></defs><title>tellfinder-spinner-light</title><g class="cls-1"><path class="cls-2" d="M100,173a73,73,0,0,1,0-146V42.91a57.09,57.09,0,0,0,0,114.18Z"/></g><g class="cls-1"><path class="cls-2" d="M100,200A100.11,100.11,0,0,1,0,100H15.92A84.08,84.08,0,1,0,100,15.92V0a100,100,0,1,1,0,200Z"/></g><g class="cls-1"><path class="cls-2" d="M100,145.34a45.34,45.34,0,0,1,0-90.69V70.58A29.42,29.42,0,1,0,129.42,100h15.92A45.4,45.4,0,0,1,100,145.34Z"/></g><path class="cls-2" d="M128.88,94.37a29.63,29.63,0,0,0-23.11-23.23l3.1-15.62a45.12,45.12,0,0,1,35.65,35.83Z"/></svg>